<?xml version="1.0" encoding="UTF-8"?>
<svg width="700pt" height="700pt" version="1.1" viewBox="0 0 700 700" xmlns="http://www.w3.org/2000/svg" xmlns:xlink="http://www.w3.org/1999/xlink" fill="black">
 <defs>
  <symbol id="g" overflow="visible">
   <path d="m3.6562-0.21875c-0.1875 0.09375-0.38672 0.16797-0.59375 0.21875-0.19922 0.050781-0.40625 0.078125-0.625 0.078125-0.66797 0-1.1992-0.17969-1.5938-0.54688-0.38672-0.375-0.57812-0.87891-0.57812-1.5156 0-0.64453 0.19141-1.1484 0.57812-1.5156 0.39453-0.375 0.92578-0.5625 1.5938-0.5625 0.21875 0 0.42578 0.027344 0.625 0.078125 0.20703 0.054687 0.40625 0.125 0.59375 0.21875v0.82812c-0.1875-0.125-0.375-0.21875-0.5625-0.28125-0.17969-0.0625-0.37109-0.09375-0.57812-0.09375-0.36719 0-0.65625 0.12109-0.875 0.35938-0.21094 0.23047-0.3125 0.55469-0.3125 0.96875 0 0.40625 0.10156 0.73047 0.3125 0.96875 0.21875 0.23047 0.50781 0.34375 0.875 0.34375 0.20703 0 0.39844-0.023437 0.57812-0.078125 0.1875-0.0625 0.375-0.16016 0.5625-0.29688z"/>
  </symbol>
  <symbol id="c" overflow="visible">
   <path d="m2.6875-2.1719c-0.085938-0.039063-0.16797-0.070313-0.25-0.09375-0.085938-0.019531-0.16797-0.03125-0.25-0.03125-0.25 0-0.44531 0.085937-0.57812 0.25-0.125 0.15625-0.1875 0.38281-0.1875 0.67188v1.375h-0.96875v-2.9844h0.96875v0.48438c0.11328-0.19531 0.25-0.33594 0.40625-0.42188 0.16406-0.09375 0.35938-0.14062 0.57812-0.14062h0.10938c0.039063 0 0.09375 0.007812 0.15625 0.015625z"/>
  </symbol>
  <symbol id="a" overflow="visible">
   <path d="m3.4375-1.5v0.26562h-2.2344c0.03125 0.23047 0.11328 0.40234 0.25 0.51562 0.13281 0.10547 0.32812 0.15625 0.57812 0.15625 0.20703 0 0.41406-0.023438 0.625-0.078125 0.20703-0.0625 0.42188-0.15625 0.64062-0.28125v0.73438c-0.21875 0.09375-0.44531 0.16406-0.67188 0.20312-0.23047 0.039062-0.45312 0.0625-0.67188 0.0625-0.54297 0-0.96484-0.13281-1.2656-0.40625-0.30469-0.28125-0.45312-0.67188-0.45312-1.1719 0-0.47656 0.14453-0.85938 0.4375-1.1406 0.30078-0.28125 0.70703-0.42188 1.2188-0.42188 0.46875 0 0.84375 0.14062 1.125 0.42188s0.42188 0.66406 0.42188 1.1406zm-0.96875-0.32812c0-0.17578-0.058594-0.31641-0.17188-0.42188-0.10547-0.11328-0.24219-0.17188-0.40625-0.17188-0.1875 0-0.33984 0.054687-0.45312 0.15625-0.11719 0.10547-0.1875 0.25-0.21875 0.4375z"/>
  </symbol>
  <symbol id="f" overflow="visible">
   <path d="m1.7969-1.3438c-0.19922 0-0.35156 0.039062-0.45312 0.10938-0.09375 0.0625-0.14062 0.16406-0.14062 0.29688 0 0.11719 0.035156 0.21094 0.10938 0.28125 0.082031 0.0625 0.19531 0.09375 0.34375 0.09375 0.17578 0 0.32812-0.0625 0.45312-0.1875s0.1875-0.28516 0.1875-0.48438v-0.10938zm1.4688-0.35938v1.7031h-0.96875v-0.4375c-0.125 0.17969-0.27344 0.30859-0.4375 0.39062-0.15625 0.082031-0.35156 0.125-0.57812 0.125-0.3125 0-0.57031-0.085938-0.76562-0.26562-0.1875-0.1875-0.28125-0.42188-0.28125-0.70312 0-0.35156 0.11719-0.61328 0.35938-0.78125 0.23828-0.16406 0.61719-0.25 1.1406-0.25h0.5625v-0.0625c0-0.15625-0.0625-0.26562-0.1875-0.32812-0.11719-0.070312-0.29688-0.10938-0.54688-0.10938-0.21094 0-0.40234 0.023437-0.57812 0.0625-0.17969 0.042969-0.33984 0.10156-0.48438 0.17188v-0.71875c0.19531-0.050781 0.39844-0.085938 0.60938-0.10938 0.20703-0.03125 0.41406-0.046875 0.625-0.046875 0.53906 0 0.92969 0.10938 1.1719 0.32812 0.23828 0.21094 0.35938 0.55469 0.35938 1.0312z"/>
  </symbol>
  <symbol id="b" overflow="visible">
   <path d="m1.5-3.8438v0.85938h0.98438v0.67188h-0.98438v1.2812c0 0.13672 0.023438 0.23047 0.078125 0.28125 0.0625 0.042969 0.17578 0.0625 0.34375 0.0625h0.48438v0.6875h-0.8125c-0.38672 0-0.65625-0.078125-0.8125-0.23438s-0.23438-0.42188-0.23438-0.79688v-1.2812h-0.46875v-0.67188h0.46875v-0.85938z"/>
  </symbol>
  <symbol id="k" overflow="visible">
   <path d="m2.5-2.5469v-1.6094h0.95312v4.1562h-0.95312v-0.4375c-0.13672 0.17969-0.28125 0.30859-0.4375 0.39062-0.15625 0.082031-0.33984 0.125-0.54688 0.125-0.375 0-0.68359-0.14453-0.92188-0.4375-0.23047-0.28906-0.34375-0.67188-0.34375-1.1406 0-0.45703 0.11328-0.83203 0.34375-1.125 0.23828-0.28906 0.54688-0.4375 0.92188-0.4375 0.19531 0 0.375 0.042969 0.53125 0.125 0.16406 0.085938 0.31641 0.21484 0.45312 0.39062zm-0.64062 1.9375c0.20703 0 0.36328-0.070313 0.46875-0.21875 0.11328-0.15625 0.17188-0.37891 0.17188-0.67188 0-0.28125-0.058594-0.49219-0.17188-0.64062-0.10547-0.15625-0.26172-0.23438-0.46875-0.23438-0.19922 0-0.35547 0.078125-0.46875 0.23438-0.10547 0.14844-0.15625 0.35938-0.15625 0.64062 0 0.29297 0.050781 0.51562 0.15625 0.67188 0.11328 0.14844 0.26953 0.21875 0.46875 0.21875z"/>
  </symbol>
  <symbol id="j" overflow="visible">
   <path d="m2.0469-0.60938c0.20703 0 0.36328-0.070313 0.46875-0.21875 0.11328-0.15625 0.17188-0.37891 0.17188-0.67188 0-0.28125-0.058594-0.49219-0.17188-0.64062-0.10547-0.15625-0.26172-0.23438-0.46875-0.23438-0.19922 0-0.35547 0.078125-0.46875 0.23438-0.10547 0.14844-0.15625 0.35938-0.15625 0.64062 0 0.29297 0.050781 0.51562 0.15625 0.67188 0.11328 0.14844 0.26953 0.21875 0.46875 0.21875zm-0.625-1.9375c0.125-0.17578 0.26562-0.30469 0.42188-0.39062 0.16406-0.082031 0.35156-0.125 0.5625-0.125 0.36328 0 0.66406 0.14844 0.90625 0.4375 0.23828 0.29297 0.35938 0.66797 0.35938 1.125 0 0.46875-0.12109 0.85156-0.35938 1.1406-0.24219 0.29297-0.54297 0.4375-0.90625 0.4375-0.21094 0-0.39844-0.042969-0.5625-0.125-0.15625-0.082031-0.29688-0.21094-0.42188-0.39062v0.4375h-0.96875v-4.1562h0.96875z"/>
  </symbol>
  <symbol id="i" overflow="visible">
   <path d="m0.0625-2.9844h0.95312l0.8125 2.0156 0.6875-2.0156h0.95312l-1.2656 3.2656c-0.125 0.33203-0.27344 0.56641-0.4375 0.70312-0.16797 0.13281-0.39062 0.20312-0.67188 0.20312h-0.54688v-0.64062h0.29688c0.16406 0 0.28516-0.027344 0.35938-0.078125 0.070313-0.054688 0.12891-0.14062 0.17188-0.26562l0.03125-0.09375z"/>
  </symbol>
  <symbol id="h" overflow="visible">
   <path d="m3.2812-3.8594v0.84375c-0.21875-0.10156-0.43359-0.17578-0.64062-0.21875-0.21094-0.050781-0.40625-0.078125-0.59375-0.078125-0.25 0-0.43359 0.039062-0.54688 0.10938-0.11719 0.0625-0.17188 0.16797-0.17188 0.3125 0 0.10547 0.035156 0.1875 0.10938 0.25 0.082031 0.054687 0.22656 0.10156 0.4375 0.14062l0.4375 0.09375c0.44531 0.09375 0.75781 0.23047 0.9375 0.40625 0.1875 0.17969 0.28125 0.4375 0.28125 0.78125 0 0.4375-0.13281 0.76562-0.39062 0.98438-0.26172 0.21094-0.65625 0.3125-1.1875 0.3125-0.25 0-0.50781-0.027344-0.76562-0.078125-0.25-0.039062-0.50781-0.10938-0.76562-0.20312v-0.875c0.25781 0.13672 0.50391 0.24219 0.73438 0.3125 0.23828 0.0625 0.47266 0.09375 0.70312 0.09375 0.21875 0 0.38281-0.035156 0.5-0.10938 0.125-0.070312 0.1875-0.17578 0.1875-0.3125 0-0.125-0.042969-0.21875-0.125-0.28125-0.085937-0.070312-0.24609-0.13281-0.48438-0.1875l-0.39062-0.09375c-0.40625-0.082031-0.70312-0.21875-0.89062-0.40625-0.17969-0.1875-0.26562-0.44141-0.26562-0.76562 0-0.39453 0.125-0.69531 0.375-0.90625 0.25781-0.21875 0.62891-0.32812 1.1094-0.32812 0.22656 0 0.45703 0.023438 0.6875 0.0625 0.22656 0.03125 0.46875 0.078125 0.71875 0.14062z"/>
  </symbol>
  <symbol id="e" overflow="visible">
   <path d="m3.4688-1.8281v1.8281h-0.96875v-1.3906c0-0.25781-0.007812-0.4375-0.015625-0.53125-0.011719-0.10156-0.03125-0.17578-0.0625-0.21875-0.03125-0.0625-0.085937-0.10938-0.15625-0.14062-0.0625-0.039062-0.13281-0.0625-0.20312-0.0625-0.21094 0-0.37109 0.078125-0.48438 0.23438-0.10547 0.15625-0.15625 0.37109-0.15625 0.64062v1.4688h-0.96875v-4.1562h0.96875v1.6094c0.13281-0.17578 0.28516-0.30469 0.45312-0.39062 0.16406-0.082031 0.34375-0.125 0.53125-0.125 0.34375 0 0.60156 0.10938 0.78125 0.32812 0.1875 0.21094 0.28125 0.51172 0.28125 0.90625z"/>
  </symbol>
  <symbol id="v" overflow="visible">
   <path d="m0.45312-4.1562h0.96875v2.2656l1.0938-1.0938h1.1094l-1.4531 1.3594 1.5625 1.625h-1.1562l-1.1562-1.25v1.25h-0.96875z"/>
  </symbol>
  <symbol id="u" overflow="visible">
   <path d="m0.45312-4.1562h0.96875v4.1562h-0.96875z"/>
  </symbol>
  <symbol id="t" overflow="visible">
   <path d="m0.5625-1.0312h0.95312v1.0312h-0.95312z"/>
  </symbol>
  <symbol id="s" overflow="visible">
   <path d="m2.4219-4.1562v0.625h-0.51562c-0.13672 0-0.23438 0.027344-0.29688 0.078125-0.054687 0.054687-0.078125 0.13672-0.078125 0.25v0.21875h0.82812v0.67188h-0.82812v2.3125h-0.95312v-2.3125h-0.46875v-0.67188h0.46875v-0.21875c0-0.32031 0.085937-0.5625 0.26562-0.71875 0.1875-0.15625 0.47266-0.23438 0.85938-0.23438z"/>
  </symbol>
  <symbol id="d" overflow="visible">
   <path d="m1.875-2.375c-0.21094 0-0.37109 0.078125-0.48438 0.23438-0.10547 0.14844-0.15625 0.35938-0.15625 0.64062 0 0.29297 0.050781 0.51562 0.15625 0.67188 0.11328 0.14844 0.27344 0.21875 0.48438 0.21875 0.20703 0 0.36719-0.070313 0.48438-0.21875 0.11328-0.15625 0.17188-0.37891 0.17188-0.67188 0-0.28125-0.058594-0.49219-0.17188-0.64062-0.11719-0.15625-0.27734-0.23438-0.48438-0.23438zm0-0.6875c0.51953 0 0.92188 0.14062 1.2031 0.42188 0.28906 0.27344 0.4375 0.65234 0.4375 1.1406 0 0.5-0.14844 0.89062-0.4375 1.1719-0.28125 0.27344-0.68359 0.40625-1.2031 0.40625-0.51172 0-0.91406-0.13281-1.2031-0.40625-0.29297-0.28125-0.4375-0.67188-0.4375-1.1719 0-0.48828 0.14453-0.86719 0.4375-1.1406 0.28906-0.28125 0.69141-0.42188 1.2031-0.42188z"/>
  </symbol>
  <symbol id="r" overflow="visible">
   <path d="m3.2344-2.5c0.11328-0.17578 0.25391-0.3125 0.42188-0.40625 0.16406-0.10156 0.35156-0.15625 0.5625-0.15625 0.33203 0 0.58594 0.10938 0.76562 0.32812 0.1875 0.21094 0.28125 0.51172 0.28125 0.90625v1.8281h-0.96875v-1.5625c0.007813-0.019531 0.015625-0.039062 0.015625-0.0625v-0.10938c0-0.21875-0.03125-0.375-0.09375-0.46875s-0.16406-0.14062-0.29688-0.14062c-0.1875 0-0.33594 0.078125-0.4375 0.23438-0.09375 0.14844-0.14062 0.35938-0.14062 0.64062v1.4688h-0.96875v-1.5625c0-0.33203-0.03125-0.54688-0.09375-0.64062-0.054688-0.09375-0.15234-0.14062-0.29688-0.14062-0.17969 0-0.32031 0.078125-0.42188 0.23438-0.09375 0.14844-0.14062 0.35938-0.14062 0.64062v1.4688h-0.96875v-2.9844h0.96875v0.4375c0.11328-0.17578 0.24219-0.30469 0.39062-0.39062 0.15625-0.082031 0.32812-0.125 0.51562-0.125 0.20703 0 0.39062 0.054688 0.54688 0.15625 0.15625 0.09375 0.27344 0.23047 0.35938 0.40625z"/>
  </symbol>
  <symbol id="q" overflow="visible">
   <path d="m0.5-3.9844h1.1562l1.4375 2.7344v-2.7344h0.98438v3.9844h-1.1562l-1.4375-2.7344v2.7344h-0.98438z"/>
  </symbol>
  <symbol id="p" overflow="visible">
   <path d="m0.42188-1.1719v-1.8125h0.96875v0.29688 0.60938 0.48438c0 0.24219 0.003906 0.41797 0.015625 0.53125 0.007812 0.10547 0.03125 0.17969 0.0625 0.21875 0.039062 0.0625 0.09375 0.11719 0.15625 0.15625 0.0625 0.03125 0.13281 0.046875 0.21875 0.046875 0.19531 0 0.35156-0.078125 0.46875-0.23438 0.11328-0.15625 0.17188-0.36719 0.17188-0.64062v-1.4688h0.95312v2.9844h-0.95312v-0.4375c-0.14844 0.17969-0.30469 0.30859-0.46875 0.39062-0.15625 0.082031-0.33594 0.125-0.53125 0.125-0.34375 0-0.60938-0.10156-0.79688-0.3125-0.17969-0.21875-0.26562-0.53125-0.26562-0.9375z"/>
  </symbol>
  <symbol id="o" overflow="visible">
   <path d="m3.4688-1.8281v1.8281h-0.96875v-1.3906c0-0.25781-0.007812-0.4375-0.015625-0.53125-0.011719-0.10156-0.03125-0.17578-0.0625-0.21875-0.03125-0.0625-0.085937-0.10938-0.15625-0.14062-0.0625-0.039062-0.13281-0.0625-0.20312-0.0625-0.21094 0-0.37109 0.078125-0.48438 0.23438-0.10547 0.15625-0.15625 0.37109-0.15625 0.64062v1.4688h-0.96875v-2.9844h0.96875v0.4375c0.13281-0.17578 0.28516-0.30469 0.45312-0.39062 0.16406-0.082031 0.34375-0.125 0.53125-0.125 0.34375 0 0.60156 0.10938 0.78125 0.32812 0.1875 0.21094 0.28125 0.51172 0.28125 0.90625z"/>
  </symbol>
  <symbol id="n" overflow="visible">
   <path d="m0.5-3.9844h1.7031c0.50781 0 0.89844 0.11719 1.1719 0.34375 0.26953 0.21875 0.40625 0.53906 0.40625 0.95312 0 0.41797-0.13672 0.74219-0.40625 0.96875-0.27344 0.21875-0.66406 0.32812-1.1719 0.32812h-0.67188v1.3906h-1.0312zm1.0312 0.75v1.1094h0.5625c0.19531 0 0.34766-0.046875 0.45312-0.14062 0.11328-0.10156 0.17188-0.24219 0.17188-0.42188 0-0.17578-0.058594-0.3125-0.17188-0.40625-0.10547-0.09375-0.25781-0.14062-0.45312-0.14062z"/>
  </symbol>
  <symbol id="m" overflow="visible">
   <path d="m0.45312-2.9844h0.96875v2.9375c0 0.39453-0.10156 0.69531-0.29688 0.90625-0.1875 0.21875-0.46484 0.32812-0.82812 0.32812h-0.48438v-0.64062h0.17188c0.17578 0 0.29688-0.042969 0.35938-0.125 0.070312-0.074219 0.10938-0.23047 0.10938-0.46875zm0-1.1719h0.96875v0.78125h-0.96875z"/>
  </symbol>
  <symbol id="l" overflow="visible">
   <path d="m2.875-2.8906v0.76562c-0.125-0.082031-0.25781-0.14453-0.39062-0.1875-0.13672-0.039062-0.27344-0.0625-0.40625-0.0625-0.27344 0-0.48047 0.078125-0.625 0.23438-0.14844 0.15625-0.21875 0.37109-0.21875 0.64062 0 0.28125 0.070313 0.5 0.21875 0.65625 0.14453 0.15625 0.35156 0.23438 0.625 0.23438 0.14453 0 0.28516-0.019531 0.42188-0.0625 0.13281-0.039063 0.25781-0.10938 0.375-0.20312v0.78125c-0.14844 0.0625-0.29688 0.10156-0.45312 0.125-0.15625 0.03125-0.3125 0.046875-0.46875 0.046875-0.54297 0-0.96484-0.13281-1.2656-0.40625-0.30469-0.28125-0.45312-0.67188-0.45312-1.1719 0-0.48828 0.14844-0.86719 0.45312-1.1406 0.30078-0.28125 0.72266-0.42188 1.2656-0.42188 0.15625 0 0.3125 0.015625 0.46875 0.046875 0.15625 0.023437 0.30469 0.0625 0.45312 0.125z"/>
  </symbol>
 </defs>
 <g>
  <path d="m308.08 205.32c1.9102-2.0312 3.6992-4.3711 5.3203-7.0078 2.5312-4.1133 1.25-9.5078-2.875-12.039-4.1328-2.5195-9.5078-1.2383-12.039 2.875-3.3008 5.3828-7.5938 8.4805-10.863 7.8828-4.7109-1.0156-9.3555 2.0625-10.34 6.793-0.98047 4.7305 2.0625 9.3555 6.793 10.34 1.5156 0.32031 3.043 0.46875 4.5625 0.46875 1.3555 0 2.6758-0.38281 4.0156-0.62891 7.3477 17.324 29.148 29.262 55.812 29.254 1.5469 0 3.1094-0.03125 4.6797-0.11719 28.07-1.4531 50.23-15.516 56.707-33.895 1.6211 0.39844 3.1953 0.96094 4.8984 1.0703 0.19141 0.023438 0.38672 0.023438 0.57812 0.023438 4.5703 0 8.418-3.5469 8.7383-8.1719 0.32031-4.8281-3.332-8.9922-8.1602-9.3047-4.957-0.33203-9.1875-3.7695-11.324-9.2188-1.7734-4.4961-6.8359-6.6875-11.324-4.957-4.5078 1.7617-6.7305 6.8477-4.957 11.344 1.4336 3.6641 3.5508 6.7656 5.9453 9.5625-1.1445 13.195-19.535 24.902-41.996 26.07-21.934 1.082-40.699-7.9844-44.172-20.344z"/>
  <path d="m185.71 388.46c20.766-1.0898 36.746-19.934 35.613-41.98v-0.023438c-1.1445-22.07-18.93-38.926-39.758-38.07-20.777 1.0703-36.754 19.891-35.625 41.957 0.54297 10.598 4.9023 20.383 12.285 27.559 7.0703 6.8789 16.098 10.598 25.605 10.598 0.62109 0.003906 1.25-0.019531 1.8789-0.039062zm-24.469-38.883c-0.70703-13.652 8.7695-25.25 21.117-25.891 0.35156-0.023438 0.70703-0.023438 1.0586-0.023438 11.891 0 21.93 10.359 22.613 23.605 0.69531 13.629-8.7812 25.25-21.117 25.891-5.8203 0.40625-11.559-1.9219-16-6.2383-4.6055-4.4844-7.332-10.637-7.6719-17.344z"/>
  <path d="m295.19 399.14-36.695 1.8867c-0.011719 0-0.023438-0.007813-0.039063-0.007813s-0.027343 0.011719-0.042969 0.011719l-89.523 4.6055c-2.0312 0.10547-3.9297 1.0039-5.2891 2.5195-1.3672 1.5156-2.0742 3.5039-1.9648 5.5117 1.0117 19.594 16.445 36.629 39.609 44.566 3.1094 15.129 16.875 26.359 33.188 26.359 0.61719 0 1.2266-0.023438 1.8477-0.042969 8.9922-0.46875 17.324-4.2734 23.438-10.723 5.0703-5.3633 7.9844-12 8.6914-19.035 22.238-10.285 35.836-28.812 34.824-48.41-0.22266-4.2266-3.9062-7.3281-8.043-7.2422zm-116.66 21.344 20.242-1.043 1.125 21.848c-10.562-4.9727-18.215-12.344-21.367-20.805zm70.082 42.789c-3.4062 3.6094-8.0625 5.7266-13.117 5.9805-10.137 0.55469-19.172-6.8594-19.676-16.512l-1.7539-34.09 11.121-0.57422 1.293 25.094c0.21484 4.1016 3.5898 7.2617 7.6367 7.2617h0.40625c4.2188-0.21484 7.4688-3.8242 7.2539-8.0312l-1.293-25.113 11.121-0.57031 1.7617 34.082c0.23438 4.5703-1.4531 8.9922-4.7539 12.473zm19.418-25.496-1.1289-21.848 20.242-1.043c-2.2656 8.7578-9.1211 16.875-19.113 22.891z"/>
  <path d="m196.87 347.73c-0.375-7.3047-6.6055-12.922-13.91-12.547-7.3047 0.375-12.922 6.6055-12.547 13.91 0.375 7.3047 6.6055 12.922 13.91 12.547 7.3047-0.375 12.922-6.6016 12.547-13.91zm-16.977 0.0625c-2.0469 0.10547-3.7891-1.4688-3.8945-3.5156-0.10547-2.0469 1.4688-3.7891 3.5156-3.8945s3.793 1.4688 3.8984 3.5117c0.097656 2.0508-1.4766 3.793-3.5195 3.8984z"/>
  <path d="m270.52 303.8c-20.777 1.0703-36.754 19.91-35.625 41.98 0.54297 10.598 4.9141 20.383 12.285 27.539 7.0703 6.8789 16.098 10.598 25.594 10.598 0.61719 0 1.25-0.023437 1.8789-0.042968 20.777-1.0703 36.754-19.891 35.625-41.957v-0.023437c-1.1562-22.07-19.047-39.055-39.758-38.094zm3.3438 64.773c-5.8945 0.38672-11.559-1.9219-16-6.2383-4.6055-4.4648-7.3281-10.617-7.668-17.324-0.70703-13.652 8.7695-25.273 21.117-25.914 0.35156-0.023438 0.70703-0.023438 1.0586-0.023438 11.891 0 21.93 10.359 22.613 23.605 0.69922 13.652-8.7734 25.254-21.121 25.895z"/>
  <path d="m271.9 330.61c-7.3047 0.375-12.922 6.6055-12.547 13.91s6.6055 12.922 13.91 12.547 12.922-6.6055 12.547-13.91c-0.375-7.3086-6.6055-12.926-13.91-12.547zm-3.0664 12.605c-2.0469 0.10547-3.7891-1.4688-3.8984-3.5156-0.10547-2.0469 1.4688-3.7891 3.5156-3.8945s3.7891 1.4688 3.8945 3.5156c0.10938 2.0469-1.4648 3.7891-3.5117 3.8945z"/>
  <path d="m301.83 159.25c0.62891 0 1.25-0.011718 1.8789-0.042968 10.18-0.52344 19.492-5.2539 26.234-13.32 6.6016-7.8945 9.9336-18.074 9.3906-28.66-0.54297-10.586-4.9141-20.359-12.285-27.539-7.543-7.3281-17.359-11.004-27.465-10.543-10.18 0.52344-19.492 5.2539-26.234 13.309-6.6016 7.9062-9.9336 18.074-9.3906 28.66 0.54297 10.586 4.9023 20.359 12.285 27.539 7.0742 6.8789 16.102 10.598 25.586 10.598zm-16.73-56.969c3.9727-4.7539 9.3984-7.543 15.273-7.8398 0.36328-0.023437 0.71484-0.03125 1.0781-0.03125 5.4805 0 10.746 2.1992 14.91 6.2578 4.6055 4.4648 7.3281 10.629 7.668 17.348 0.35156 6.7188-1.7188 13.129-5.8438 18.051-3.9727 4.7539-9.3984 7.543-15.273 7.8398-5.6914 0.44922-11.547-1.9023-15.992-6.2383-4.6055-4.4648-7.3281-10.629-7.668-17.348-0.34766-6.7148 1.7266-13.113 5.8477-18.039z"/>
  <path d="m302.32 132.4c7.3047-0.375 12.926-6.6055 12.547-13.91-0.37891-7.3047-6.6055-12.922-13.91-12.547-7.3047 0.37891-12.922 6.6055-12.547 13.91 0.37891 7.3086 6.6094 12.926 13.91 12.547zm-4.8086-21.258c2.0469-0.10547 3.7891 1.4688 3.8945 3.5117 0.10547 2.0469-1.4688 3.7891-3.5156 3.8945s-3.7891-1.4688-3.8945-3.5156c-0.10547-2.0391 1.4688-3.7852 3.5156-3.8906z"/>
  <path d="m390.79 154.67c0.61719 0 1.2383-0.011719 1.8789-0.042969 20.766-1.0898 36.746-19.91 35.613-41.98-0.55469-10.574-4.9141-20.359-12.285-27.539-7.543-7.3398-17.434-11.098-27.453-10.555-10.191 0.52344-19.504 5.2539-26.246 13.32-6.6016 7.8945-9.9336 18.074-9.3906 28.66 0.54297 10.574 4.9141 20.359 12.285 27.539 7.0742 6.8828 16.09 10.598 25.598 10.598zm-16.75-56.973c3.9727-4.7539 9.3984-7.543 15.273-7.8398 0.36328-0.023438 0.72656-0.03125 1.0703-0.03125 5.4922 0 10.746 2.1992 14.934 6.2695 4.5938 4.4766 7.3281 10.629 7.668 17.348 0.70703 13.629-8.7812 25.25-21.105 25.891-6.1523 0.32031-11.559-1.9102-16-6.2383-4.6055-4.4766-7.3281-10.629-7.668-17.348-0.35547-6.7188 1.7148-13.129 5.8281-18.051z"/>
  <path d="m391.27 127.82c7.3047-0.375 12.922-6.6055 12.547-13.91-0.375-7.3047-6.6055-12.922-13.91-12.547-7.3047 0.375-12.922 6.6055-12.547 13.91 0.375 7.3047 6.6055 12.922 13.91 12.547zm-4.8125-21.262c2.0469-0.10547 3.793 1.4688 3.8984 3.5156s-1.4688 3.7891-3.5156 3.8945-3.7891-1.4688-3.8945-3.5156c-0.10547-2.043 1.4648-3.7891 3.5117-3.8945z"/>
  <path d="m606.43 377.86c-3.9297-75.754-68.812-134.59-144.46-130.3-1.4688 0.078125-2.8633 0.40625-4.3203 0.52734 17.32-24.871 26.008-54.496 24.422-85.359-3.9297-75.766-69.027-134.13-144.47-130.3-75.754 3.9102-134.21 68.715-130.3 144.47 1.457 28.238 11.43 54.016 27.223 75.113-3.4102-0.074219-6.8203-0.25391-10.227-0.074219-75.992 3.9219-134.63 68.93-130.71 144.92 3.793 73.574 64.859 130.89 137.73 130.89 2.3828 0 4.7852-0.066406 7.1875-0.19141 49.168-2.5273 90.949-30.707 113.35-70.812 24.867 40.785 68.688 65.793 117 65.793 2.4141 0 4.8281-0.066406 7.2617-0.19141 75.754-3.9141 134.2-68.73 130.32-144.48zm-267.93-327.96c66.387-3.375 122.68 47.609 126.1 113.73 1.6875 32.719-9.6758 63.941-31.961 87.922-0.33984 0.36328-0.48047 0.81641-0.74609 1.2148-22.293 6.1914-42.41 17.672-58.746 33.621-7.2539 1.7617-14.723 2.9414-22.277 3.3398-66.238 3.4609-122.69-47.609-126.1-113.73-3.4023-66.117 47.613-122.69 113.73-126.1zm2.9336 257.33c1.0664 0.023437 2.1055 0.15625 3.1758 0.15625 2.3711 0 4.7656-0.066407 7.168-0.17188 1.4727-0.078125 2.9219-0.33203 4.3906-0.45703-2.5547 3.7109-4.9727 7.5078-7.1797 11.504-2.3203-3.8164-4.8633-7.4453-7.5547-11.031zm-20.559 163.22c-21.555 23.906-51.133 37.965-83.273 39.629-66.449 3.4844-123.13-47.77-126.55-114.12-3.418-66.355 47.781-123.13 114.14-126.55 8.957-0.44531 17.844 0.16797 26.578 1.6523 18.102 16.609 40.566 28.426 65.355 33.5 0.30469 0.46875 0.49609 0.99219 0.90234 1.4102 20.242 20.938 32.215 48.473 33.723 77.57 1.6523 32.152-9.3086 63-30.875 86.906zm154.34 34.418c-48.246 2.4727-93.098-24.094-114.19-67.809 6.1992-16.914 9.1797-35.312 8.1914-54.41-0.8125-15.734-4.5-30.992-10.391-45.324 18.281-42.219 58.082-69.91 104.04-72.281 66.27-3.2266 122.67 47.617 126.09 113.72 3.3984 66.113-47.617 122.68-113.74 126.11z"/>
  <path d="m428.06 374.34c20.785-1.0703 36.766-19.891 35.633-41.957v-0.023437c-1.1758-22.07-19.055-38.957-39.758-38.07-20.785 1.0703-36.766 19.891-35.633 41.98 1.1328 21.406 17.945 38.113 37.922 38.113 0.61719 0 1.2383-0.023437 1.8359-0.042968zm-24.461-38.859c-0.70703-13.652 8.7812-25.25 21.129-25.891 0.34375-0.023438 0.70703-0.023438 1.0703-0.023438 11.879 0 21.898 10.359 22.602 23.605 0.70703 13.629-8.7812 25.23-21.105 25.871-12.309 0.70312-22.969-9.9336-23.695-23.562z"/>
  <path d="m439.23 333.63c-0.375-7.3047-6.6055-12.922-13.91-12.547-7.3047 0.375-12.922 6.6055-12.547 13.91 0.375 7.3047 6.6055 12.922 13.91 12.547 7.3047-0.375 12.926-6.6055 12.547-13.91zm-16.977 0.058594c-2.0469 0.10547-3.7891-1.4688-3.8945-3.5156s1.4688-3.7891 3.5156-3.8945 3.7891 1.4688 3.8945 3.5117c0.10547 2.0508-1.4688 3.7969-3.5156 3.8984z"/>
  <path d="m512.9 289.7c-20.785 1.0703-36.766 19.891-35.633 41.957 0.55469 10.598 4.9141 20.383 12.285 27.559 7.0703 6.8789 16.086 10.598 25.594 10.598 0.61719 0 1.2383-0.023438 1.8594-0.042969 20.785-1.0703 36.766-19.91 35.633-41.98-0.55469-10.598-4.9141-20.383-12.285-27.547-7.543-7.3164-17.309-11.129-27.453-10.543zm3.332 64.777c-6.2188 0.42578-11.578-1.9219-16-6.2383-4.5938-4.4648-7.3281-10.641-7.668-17.348-0.70703-13.652 8.7812-25.25 21.105-25.891 0.36328-0.023438 0.72656-0.023438 1.0703-0.023438 5.4922 0 10.766 2.1992 14.934 6.2578 4.5938 4.4648 7.3281 10.617 7.668 17.324 0.70312 13.652-8.7852 25.277-21.109 25.918z"/>
  <path d="m514.27 316.5c-7.3047 0.375-12.922 6.6055-12.547 13.91 0.375 7.3047 6.6055 12.922 13.91 12.547 7.3047-0.375 12.922-6.6055 12.547-13.91s-6.6055-12.922-13.91-12.547zm-3.0664 12.609c-2.0469 0.10547-3.7891-1.4688-3.8945-3.5156-0.10547-2.0469 1.4688-3.7891 3.5156-3.8945 2.0469-0.10547 3.793 1.4688 3.8984 3.5156 0.10156 2.043-1.4727 3.7891-3.5195 3.8945z"/>
  <path d="m473.91 401.28c-30.293 0-57.316 11.559-70.562 30.145-2.8008 3.9531-1.8789 9.4219 2.0508 12.219 1.5586 1.0898 3.3125 1.625 5.0859 1.625 2.7344 0 5.4258-1.2812 7.1367-3.6758 9.8477-13.863 31.938-22.793 56.293-22.793 23.648 0 45.504 8.6094 55.652 21.918 2.9688 3.8672 8.4375 4.5703 12.262 1.668 3.8438-2.9492 4.5938-8.4375 1.668-12.262-13.574-17.797-40.234-28.844-69.586-28.844z"/>
 </g>
</svg>
