<?xml version="1.0" encoding="UTF-8"?>
<svg width="700pt" height="700pt" version="1.1" viewBox="0 0 700 700" xmlns="http://www.w3.org/2000/svg" xmlns:xlink="http://www.w3.org/1999/xlink" fill="black">
 <defs>
  <symbol id="u" overflow="visible">
   <path d="m18.766-1.125c-0.96875 0.5-1.9805 0.875-3.0312 1.125-1.043 0.25781-2.1367 0.39062-3.2812 0.39062-3.3984 0-6.0898-0.94531-8.0781-2.8438-1.9922-1.9062-2.9844-4.4844-2.9844-7.7344 0-3.2578 0.99219-5.8359 2.9844-7.7344 1.9883-1.9062 4.6797-2.8594 8.0781-2.8594 1.1445 0 2.2383 0.13281 3.2812 0.39062 1.0508 0.25 2.0625 0.625 3.0312 1.125v4.2188c-0.98047-0.65625-1.9453-1.1406-2.8906-1.4531-0.94922-0.3125-1.9492-0.46875-3-0.46875-1.875 0-3.3516 0.60547-4.4219 1.8125-1.0742 1.1992-1.6094 2.8555-1.6094 4.9688 0 2.1055 0.53516 3.7617 1.6094 4.9688 1.0703 1.1992 2.5469 1.7969 4.4219 1.7969 1.0508 0 2.0508-0.14844 3-0.45312 0.94531-0.3125 1.9102-0.80078 2.8906-1.4688z"/>
  </symbol>
  <symbol id="d" overflow="visible">
   <path d="m13.734-11.141c-0.4375-0.19531-0.87109-0.34375-1.2969-0.4375-0.41797-0.10156-0.83984-0.15625-1.2656-0.15625-1.2617 0-2.2305 0.40625-2.9062 1.2188-0.67969 0.80469-1.0156 1.9531-1.0156 3.4531v7.0625h-4.8906v-15.312h4.8906v2.5156c0.625-1 1.3438-1.7266 2.1562-2.1875 0.82031-0.46875 1.8008-0.70312 2.9375-0.70312 0.16406 0 0.34375 0.011719 0.53125 0.03125 0.19531 0.011719 0.47656 0.039062 0.84375 0.078125z"/>
  </symbol>
  <symbol id="a" overflow="visible">
   <path d="m17.641-7.7031v1.4062h-11.453c0.125 1.1484 0.53906 2.0078 1.25 2.5781 0.70703 0.57422 1.7031 0.85938 2.9844 0.85938 1.0312 0 2.082-0.14844 3.1562-0.45312 1.082-0.3125 2.1914-0.77344 3.3281-1.3906v3.7656c-1.1562 0.4375-2.3125 0.76562-3.4688 0.98438-1.1562 0.22656-2.3125 0.34375-3.4688 0.34375-2.7734 0-4.9297-0.70312-6.4688-2.1094-1.5312-1.4062-2.2969-3.3789-2.2969-5.9219 0-2.5 0.75391-4.4609 2.2656-5.8906 1.5078-1.4375 3.582-2.1562 6.2188-2.1562 2.4062 0 4.332 0.73047 5.7812 2.1875 1.4453 1.4492 2.1719 3.3828 2.1719 5.7969zm-5.0312-1.625c0-0.92578-0.27344-1.6719-0.8125-2.2344-0.54297-0.57031-1.25-0.85938-2.125-0.85938-0.94922 0-1.7188 0.26562-2.3125 0.79688s-0.96484 1.2969-1.1094 2.2969z"/>
  </symbol>
  <symbol id="e" overflow="visible">
   <path d="m9.2188-6.8906c-1.0234 0-1.793 0.17188-2.3125 0.51562-0.51172 0.34375-0.76562 0.85547-0.76562 1.5312 0 0.625 0.20703 1.1172 0.625 1.4688 0.41406 0.34375 0.98828 0.51562 1.7188 0.51562 0.92578 0 1.7031-0.32812 2.3281-0.98438 0.63281-0.66406 0.95312-1.4922 0.95312-2.4844v-0.5625zm7.4688-1.8438v8.7344h-4.9219v-2.2656c-0.65625 0.92969-1.3984 1.6055-2.2188 2.0312-0.82422 0.41406-1.8242 0.625-3 0.625-1.5859 0-2.8711-0.45703-3.8594-1.375-0.99219-0.92578-1.4844-2.1289-1.4844-3.6094 0-1.7891 0.61328-3.1016 1.8438-3.9375 1.2383-0.84375 3.1797-1.2656 5.8281-1.2656h2.8906v-0.39062c0-0.76953-0.30859-1.332-0.92188-1.6875-0.61719-0.36328-1.5703-0.54688-2.8594-0.54688-1.0547 0-2.0312 0.10547-2.9375 0.3125-0.89844 0.21094-1.7305 0.52344-2.5 0.9375v-3.7344c1.0391-0.25 2.0859-0.44141 3.1406-0.57812 1.0625-0.13281 2.125-0.20312 3.1875-0.20312 2.7578 0 4.75 0.54688 5.9688 1.6406 1.2266 1.0859 1.8438 2.8555 1.8438 5.3125z"/>
  </symbol>
  <symbol id="c" overflow="visible">
   <path d="m7.7031-19.656v4.3438h5.0469v3.5h-5.0469v6.5c0 0.71094 0.14062 1.1875 0.42188 1.4375s0.83594 0.375 1.6719 0.375h2.5156v3.5h-4.1875c-1.9375 0-3.3125-0.39844-4.125-1.2031-0.80469-0.8125-1.2031-2.1797-1.2031-4.1094v-6.5h-2.4219v-3.5h2.4219v-4.3438z"/>
  </symbol>
  <symbol id="k" overflow="visible">
   <path d="m12.766-13.078v-8.2031h4.9219v21.281h-4.9219v-2.2188c-0.66797 0.90625-1.4062 1.5703-2.2188 1.9844s-1.7578 0.625-2.8281 0.625c-1.8867 0-3.4336-0.75-4.6406-2.25-1.2109-1.5-1.8125-3.4258-1.8125-5.7812 0-2.3633 0.60156-4.2969 1.8125-5.7969 1.207-1.5 2.7539-2.25 4.6406-2.25 1.0625 0 2 0.21484 2.8125 0.64062 0.82031 0.42969 1.5664 1.0859 2.2344 1.9688zm-3.2188 9.9219c1.0391 0 1.8359-0.37891 2.3906-1.1406 0.55078-0.76953 0.82812-1.8828 0.82812-3.3438 0-1.457-0.27734-2.5664-0.82812-3.3281-0.55469-0.76953-1.3516-1.1562-2.3906-1.1562-1.043 0-1.8398 0.38672-2.3906 1.1562-0.55469 0.76172-0.82812 1.8711-0.82812 3.3281 0 1.4609 0.27344 2.5742 0.82812 3.3438 0.55078 0.76172 1.3477 1.1406 2.3906 1.1406z"/>
  </symbol>
  <symbol id="j" overflow="visible">
   <path d="m10.5-3.1562c1.0508 0 1.8516-0.37891 2.4062-1.1406 0.55078-0.76953 0.82812-1.8828 0.82812-3.3438 0-1.457-0.27734-2.5664-0.82812-3.3281-0.55469-0.76953-1.3555-1.1562-2.4062-1.1562-1.0547 0-1.8594 0.38672-2.4219 1.1562-0.55469 0.77344-0.82812 1.8828-0.82812 3.3281 0 1.4492 0.27344 2.5586 0.82812 3.3281 0.5625 0.77344 1.3672 1.1562 2.4219 1.1562zm-3.25-9.9219c0.67578-0.88281 1.4219-1.5391 2.2344-1.9688 0.82031-0.42578 1.7656-0.64062 2.8281-0.64062 1.8945 0 3.4453 0.75 4.6562 2.25 1.207 1.5 1.8125 3.4336 1.8125 5.7969 0 2.3555-0.60547 4.2812-1.8125 5.7812-1.2109 1.5-2.7617 2.25-4.6562 2.25-1.0625 0-2.0078-0.21094-2.8281-0.625-0.8125-0.42578-1.5586-1.0859-2.2344-1.9844v2.2188h-4.8906v-21.281h4.8906z"/>
  </symbol>
  <symbol id="i" overflow="visible">
   <path d="m0.34375-15.312h4.8906l4.125 10.391 3.5-10.391h4.8906l-6.4375 16.766c-0.64844 1.6953-1.4023 2.8828-2.2656 3.5625-0.86719 0.6875-2 1.0312-3.4062 1.0312h-2.8438v-3.2188h1.5312c0.83203 0 1.4375-0.13672 1.8125-0.40625 0.38281-0.26172 0.67969-0.73047 0.89062-1.4062l0.14062-0.42188z"/>
  </symbol>
  <symbol id="h" overflow="visible">
   <path d="m2.5781-20.406h5.25v20.406h-5.25z"/>
  </symbol>
  <symbol id="g" overflow="visible">
   <path d="m14.719-14.828v3.9844c-0.65625-0.45703-1.3242-0.79688-2-1.0156-0.66797-0.21875-1.3594-0.32812-2.0781-0.32812-1.3672 0-2.4336 0.40234-3.2031 1.2031-0.76172 0.79297-1.1406 1.9062-1.1406 3.3438 0 1.4297 0.37891 2.543 1.1406 3.3438 0.76953 0.79297 1.8359 1.1875 3.2031 1.1875 0.75781 0 1.4844-0.10938 2.1719-0.32812 0.6875-0.22656 1.3203-0.56641 1.9062-1.0156v4c-0.76172 0.28125-1.5391 0.48828-2.3281 0.625-0.78125 0.14453-1.5742 0.21875-2.375 0.21875-2.7617 0-4.9219-0.70703-6.4844-2.125-1.5547-1.4141-2.3281-3.3828-2.3281-5.9062 0-2.5312 0.77344-4.5039 2.3281-5.9219 1.5625-1.4141 3.7227-2.125 6.4844-2.125 0.80078 0 1.5938 0.074219 2.375 0.21875 0.78125 0.13672 1.5547 0.35156 2.3281 0.64062z"/>
  </symbol>
  <symbol id="b" overflow="visible">
   <path d="m9.6406-12.188c-1.0859 0-1.9141 0.39062-2.4844 1.1719-0.57422 0.78125-0.85938 1.9062-0.85938 3.375s0.28516 2.5938 0.85938 3.375c0.57031 0.77344 1.3984 1.1562 2.4844 1.1562 1.0625 0 1.875-0.38281 2.4375-1.1562 0.57031-0.78125 0.85938-1.9062 0.85938-3.375s-0.28906-2.5938-0.85938-3.375c-0.5625-0.78125-1.375-1.1719-2.4375-1.1719zm0-3.5c2.6328 0 4.6914 0.71484 6.1719 2.1406 1.4766 1.418 2.2188 3.3867 2.2188 5.9062 0 2.5117-0.74219 4.4805-2.2188 5.9062-1.4805 1.418-3.5391 2.125-6.1719 2.125-2.6484 0-4.7148-0.70703-6.2031-2.125-1.4922-1.4258-2.2344-3.3945-2.2344-5.9062 0-2.5195 0.74219-4.4883 2.2344-5.9062 1.4883-1.4258 3.5547-2.1406 6.2031-2.1406z"/>
  </symbol>
  <symbol id="f" overflow="visible">
   <path d="m17.75-9.3281v9.3281h-4.9219v-7.1406c0-1.3203-0.03125-2.2344-0.09375-2.7344s-0.16797-0.86719-0.3125-1.1094c-0.1875-0.3125-0.44922-0.55469-0.78125-0.73438-0.32422-0.17578-0.69531-0.26562-1.1094-0.26562-1.0234 0-1.8242 0.39844-2.4062 1.1875-0.58594 0.78125-0.875 1.8711-0.875 3.2656v7.5312h-4.8906v-15.312h4.8906v2.2344c0.73828-0.88281 1.5195-1.5391 2.3438-1.9688 0.83203-0.42578 1.75-0.64062 2.75-0.64062 1.7695 0 3.1133 0.54688 4.0312 1.6406 0.91406 1.0859 1.375 2.6562 1.375 4.7188z"/>
  </symbol>
  <symbol id="t" overflow="visible">
   <path d="m2.3594-15.312h4.8906v15.312h-4.8906zm0-5.9688h4.8906v4h-4.8906z"/>
  </symbol>
  <symbol id="s" overflow="visible">
   <path d="m2.3594-21.281h4.8906v11.594l5.625-5.625h5.6875l-7.4688 7.0312 8.0625 8.2812h-5.9375l-5.9688-6.3906v6.3906h-4.8906z"/>
  </symbol>
  <symbol id="r" overflow="visible">
   <path d="m12.422-21.281v3.2188h-2.7031c-0.6875 0-1.1719 0.125-1.4531 0.375-0.27344 0.25-0.40625 0.6875-0.40625 1.3125v1.0625h4.1875v3.5h-4.1875v11.812h-4.8906v-11.812h-2.4375v-3.5h2.4375v-1.0625c0-1.6641 0.46094-2.8984 1.3906-3.7031 0.92578-0.80078 2.3672-1.2031 4.3281-1.2031z"/>
  </symbol>
  <symbol id="q" overflow="visible">
   <path d="m16.547-12.766c0.61328-0.94531 1.3477-1.6719 2.2031-2.1719 0.85156-0.5 1.7891-0.75 2.8125-0.75 1.7578 0 3.0977 0.54688 4.0156 1.6406 0.92578 1.0859 1.3906 2.6562 1.3906 4.7188v9.3281h-4.9219v-7.9844-0.35938c0.007813-0.13281 0.015625-0.32031 0.015625-0.5625 0-1.082-0.16406-1.8633-0.48438-2.3438-0.3125-0.48828-0.82422-0.73438-1.5312-0.73438-0.92969 0-1.6484 0.38672-2.1562 1.1562-0.51172 0.76172-0.77344 1.8672-0.78125 3.3125v7.5156h-4.9219v-7.9844c0-1.6953-0.14844-2.7852-0.4375-3.2656-0.29297-0.48828-0.8125-0.73438-1.5625-0.73438-0.9375 0-1.6641 0.38672-2.1719 1.1562-0.51172 0.76172-0.76562 1.8594-0.76562 3.2969v7.5312h-4.9219v-15.312h4.9219v2.2344c0.60156-0.86328 1.2891-1.5156 2.0625-1.9531 0.78125-0.4375 1.6406-0.65625 2.5781-0.65625 1.0625 0 2 0.25781 2.8125 0.76562 0.8125 0.51172 1.4258 1.2305 1.8438 2.1562z"/>
  </symbol>
  <symbol id="p" overflow="visible">
   <path d="m17.75-9.3281v9.3281h-4.9219v-7.1094c0-1.3438-0.03125-2.2656-0.09375-2.7656s-0.16797-0.86719-0.3125-1.1094c-0.1875-0.3125-0.44922-0.55469-0.78125-0.73438-0.32422-0.17578-0.69531-0.26562-1.1094-0.26562-1.0234 0-1.8242 0.39844-2.4062 1.1875-0.58594 0.78125-0.875 1.8711-0.875 3.2656v7.5312h-4.8906v-21.281h4.8906v8.2031c0.73828-0.88281 1.5195-1.5391 2.3438-1.9688 0.83203-0.42578 1.75-0.64062 2.75-0.64062 1.7695 0 3.1133 0.54688 4.0312 1.6406 0.91406 1.0859 1.375 2.6562 1.375 4.7188z"/>
  </symbol>
  <symbol id="o" overflow="visible">
   <path d="m2.5781-20.406h5.875l7.4219 14v-14h4.9844v20.406h-5.875l-7.4219-14v14h-4.9844z"/>
  </symbol>
  <symbol id="n" overflow="visible">
   <path d="m2.1875-5.9688v-9.3438h4.9219v1.5312c0 0.83594-0.007813 1.875-0.015625 3.125-0.011719 1.25-0.015625 2.0859-0.015625 2.5 0 1.2422 0.03125 2.1328 0.09375 2.6719 0.070313 0.54297 0.17969 0.93359 0.32812 1.1719 0.20703 0.32422 0.47266 0.57422 0.79688 0.75 0.32031 0.16797 0.69141 0.25 1.1094 0.25 1.0195 0 1.8203-0.39062 2.4062-1.1719 0.58203-0.78125 0.875-1.8672 0.875-3.2656v-7.5625h4.8906v15.312h-4.8906v-2.2188c-0.74219 0.89844-1.5234 1.5586-2.3438 1.9844-0.82422 0.41406-1.7344 0.625-2.7344 0.625-1.7617 0-3.1055-0.53906-4.0312-1.625-0.92969-1.082-1.3906-2.6602-1.3906-4.7344z"/>
  </symbol>
  <symbol id="m" overflow="visible">
   <path d="m2.5781-20.406h8.7344c2.5938 0 4.582 0.57812 5.9688 1.7344 1.3945 1.1484 2.0938 2.7891 2.0938 4.9219 0 2.1367-0.69922 3.7812-2.0938 4.9375-1.3867 1.1562-3.375 1.7344-5.9688 1.7344h-3.4844v7.0781h-5.25zm5.25 3.8125v5.7031h2.9219c1.0195 0 1.8047-0.25 2.3594-0.75 0.5625-0.5 0.84375-1.2031 0.84375-2.1094 0-0.91406-0.28125-1.6172-0.84375-2.1094-0.55469-0.48828-1.3398-0.73438-2.3594-0.73438z"/>
  </symbol>
  <symbol id="l" overflow="visible">
   <path d="m2.3594-15.312h4.8906v15.031c0 2.0508-0.49609 3.6172-1.4844 4.7031-0.98047 1.082-2.4062 1.625-4.2812 1.625h-2.4219v-3.2188h0.85938c0.92578 0 1.5625-0.21094 1.9062-0.625 0.35156-0.41797 0.53125-1.2461 0.53125-2.4844zm0-5.9688h4.8906v4h-4.8906z"/>
  </symbol>
 </defs>
 <g>
  <path d="m372.98 332.14 4.0391 4.0391-4.0781 4.0703c-2.082 2.082-2.082 5.4648 0 7.543l2.6719 2.6641c1.0352 1.0469 2.4023 1.5625 3.7695 1.5625 1.3594 0 2.7266-0.51953 3.7695-1.5625 1.6914-1.6914 1.9805-4.2344 0.92578-6.2422l4.2578-4.2617 20.637-20.629c0-0.011719 0.003906-0.011719 0.003906-0.011719l4.0703-4.0703 20.352 20.363c1.0469 1.0352 2.4141 1.5508 3.7695 1.5508 1.3672 0 2.7344-0.51953 3.7734-1.5508 2.0781-2.082 2.0781-5.4648 0-7.543l-24.125-24.121v-0.003906c-0.25781-0.25781-0.52734-0.47656-0.81641-0.66016-0.003906-0.003906-0.011719-0.023438-0.023438-0.027344-0.074218-0.042969-0.14453-0.074219-0.21875-0.11719-1.4453-0.85156-3.1914-0.98437-4.7266-0.37109-0.63672 0.26172-1.2422 0.65625-1.7578 1.1758l-4.0781 4.0703-4.0391-4.0391c1.3984-2.0117 2.7148-4.0391 3.9141-6.0312v-0.003906c26.551-44.027 19.66-100.21-16.742-136.61-43.562-43.559-114.44-43.559-157.99 0-21.105 21.105-32.727 49.156-32.727 79 0 29.836 11.625 57.895 32.727 78.988 21.598 21.598 50.16 32.809 79.016 32.809 19.77 0 39.676-5.2578 57.574-16.051 0 0 0.003907 0 0.003907-0.003906 2.0156-1.1992 4.0352-2.5273 6.0508-3.9219zm14.316-6.2422-2.7383 2.7383-3.0586-3.0508c2.3477-1.9922 4.6328-4.082 6.8281-6.2656 2.1953-2.1992 4.2852-4.4844 6.2656-6.832l3.0586 3.0508zm-149.43-14.125c-19.086-19.086-29.602-44.465-29.602-71.457 0-26.992 10.512-52.375 29.602-71.461 39.402-39.402 103.51-39.402 142.92 0 32.934 32.934 39.172 83.746 15.16 123.56-0.003906 0.003906-0.003906 0.003906-0.003906 0.011719 0 0 0 0.003906-0.003906 0.003906-1.7539 2.9336-3.7734 5.9258-6.0039 8.8711-2.75 3.6328-5.8281 7.1523-9.1328 10.465-3.3047 3.3047-6.832 6.3711-10.465 9.1289-2.9297 2.2188-5.918 4.2461-8.8711 6.0195-0.011719 0-0.015625 0-0.023438 0.003906-39.828 24.02-90.641 17.781-123.57-15.148z"/>
  <path d="m434.35 394.13 32.555-32.555c2.0781-2.0781 2.0781-5.4609 0-7.543l-7.4609-7.4531c-0.011718-0.011719-0.015624-0.015625-0.027343-0.027343l-3.0781-3.0781c-0.011719-0.011718-0.015625-0.011718-0.027344-0.027343l-7.6719-7.6719c-2.082-2.082-5.4648-2.082-7.543 0l-32.555 32.555-0.73828-0.74609c-2.082-2.082-5.4648-2.082-7.543 0-2.0781 2.082-2.0781 5.4531 0 7.5391l3.0859 3.0859c0.24219 0.24609 0.50391 0.44922 0.77734 0.63281 0.18359 0.28516 0.40234 0.55469 0.64453 0.79688l18.273 18.273c0.003906 0.003907 0.011719 0.003907 0.011719 0.011719l19.828 19.828c1.043 1.043 2.4062 1.5586 3.7695 1.5586 1.3672 0 2.7344-0.51953 3.7734-1.5586 2.0781-2.082 2.0781-5.4609 0-7.5391zm10.52-47.051 10.723 10.723-28.777 28.777-0.51562-0.50781c0-0.003907-0.003906-0.003907-0.003906-0.011719l-10.203-10.203z"/>
  <path d="m484.09 371.22c-2.082-2.082-5.4648-2.082-7.5391 0-2.082 2.0781-2.082 5.4609 0 7.5391l9.5469 9.5469c2.3789 2.3867 3.6914 5.5703 3.6914 8.9766 0 1.5352-0.26953 3.0469-0.80078 4.4727-1.0312 2.7539 0.375 5.8242 3.1406 6.8555 0.60547 0.23047 1.2383 0.33594 1.8594 0.33594 2.1602 0 4.1953-1.3203 4.9961-3.4648 0.97266-2.625 1.4727-5.3828 1.4727-8.1914 0-6.25-2.4258-12.113-6.8203-16.508z"/>
  <path d="m472.24 425.93c1.0352 1.4883 2.6875 2.2773 4.3789 2.2773 1.0547 0 2.1094-0.30859 3.0391-0.95312 1.1094-0.77734 2.1719-1.6641 3.1406-2.6328l0.84375-0.85156c2.082-2.082 2.082-5.4609 0-7.5391-2.082-2.082-5.4609-2.082-7.5391 0l-0.85547 0.85156c-0.51953 0.51953-1.0859 1.0039-1.6914 1.418-2.4062 1.6953-2.9961 5.0156-1.3164 7.4297z"/>
  <path d="m360.46 186.96c-3.1992-3.1992-6.6875-6.1094-10.383-8.6523-2.4258-1.668-5.7461-1.0586-7.4141 1.3672s-1.0586 5.7461 1.3672 7.4141c3.1602 2.1797 6.1562 4.6719 8.8984 7.4141 1.043 1.043 2.4023 1.5625 3.7695 1.5625s2.7266-0.51953 3.7695-1.5625c2.0781-2.0859 2.0781-5.457-0.007812-7.543z"/>
  <path d="m287.23 168.35c-11.742 3.4648-22.551 9.9062-31.266 18.613-2.082 2.082-2.082 5.4609 0 7.5391 1.043 1.043 2.4062 1.5625 3.7695 1.5625 1.3594 0 2.7266-0.51953 3.7695-1.5625 7.4531-7.4531 16.699-12.965 26.746-15.926 2.8242-0.83594 4.4414-3.7969 3.6055-6.6211-0.83203-2.8281-3.7969-4.4453-6.625-3.6055z"/>
  <path d="m315.12 165.64c-1.1641-0.11328-2.3477-0.19141-3.5156-0.24219-0.38672-0.015625-0.77734-0.035156-1.1641-0.042969-2.9414-0.13281-5.3984 2.2227-5.4883 5.168-0.089843 2.9414 2.2305 5.3984 5.168 5.4805 0.33203 0.011719 0.66797 0.023438 1.0039 0.039062h0.003906c0.99609 0.042969 2.0117 0.11719 3.0078 0.21094 0.16797 0.011719 0.33984 0.023438 0.50391 0.023438 2.7227 0 5.0469-2.0703 5.3047-4.832 0.25781-2.9258-1.8906-5.5234-4.8242-5.8047z"/>
  <path d="m135.51 359.59-0.37109-0.99609c0-0.011719-0.003907-0.015625-0.003907-0.027344-0.36328-0.99219-0.72266-1.9805-1.0703-2.9805-0.97266-2.7773-4.0195-4.2383-6.7969-3.2656-2.7773 0.98047-4.2344 4.0195-3.2656 6.8047 0.37109 1.0469 0.74609 2.082 1.125 3.1289 0 0.003906 0 0.011719 0.003906 0.015625l0.38672 1.0469c0.80078 2.1523 2.832 3.4648 4.9961 3.4648 0.61719 0 1.25-0.10547 1.8633-0.33203 2.7656-1.0273 4.1641-4.1016 3.1328-6.8594z"/>
  <path d="m138.3 180.04c0.76562 0.38672 1.5859 0.57031 2.3906 0.57031 1.9492 0 3.8242-1.0703 4.7656-2.9336l0.47656-0.94141s0-0.003906 0.003906-0.003906c0.48047-0.95312 0.97266-1.8984 1.4727-2.8438 1.3789-2.5977 0.375-5.8242-2.2227-7.2031s-5.8281-0.375-7.2031 2.2227c-0.51953 0.99219-1.0352 1.9805-1.5469 2.9805 0 0.011719-0.011718 0.023437-0.015625 0.035156l-0.48828 0.96484c-1.3242 2.6211-0.27344 5.8242 2.3672 7.1523z"/>
  <path d="m200 106.07c1.2031 0 2.4141-0.40234 3.4062-1.2305l0.81641-0.67188 0.003906-0.003907c0.81641-0.67578 1.6445-1.3477 2.4766-2.0117 2.2969-1.8438 2.6641-5.1953 0.82422-7.4922-1.8438-2.3008-5.1953-2.6719-7.4922-0.82812-0.86328 0.69531-1.7266 1.3945-2.582 2.1016 0 0-0.003906 0-0.003906 0.003906l-0.003907 0.011719-0.84375 0.69922c-2.2617 1.8828-2.5703 5.2461-0.6875 7.5039 1.0391 1.2617 2.5547 1.918 4.0859 1.918z"/>
  <path d="m120.44 233.71c0.39844 0.089843 0.78906 0.12891 1.1758 0.12891 2.4375 0 4.6367-1.6797 5.1953-4.1602 2.4922-11.055 5.8477-22.012 9.9727-32.562 1.0742-2.7422-0.28125-5.8359-3.0234-6.9062-2.7422-1.0703-5.8359 0.28125-6.9062 3.0234-4.3164 11.047-7.8359 22.523-10.445 34.098-0.64453 2.8711 1.1602 5.7305 4.0312 6.3789z"/>
  <path d="m125.23 322.72c-2.1016-11.094-3.3867-22.473-3.8242-33.824-0.11719-2.9414-2.5664-5.2461-5.5312-5.1172-2.9414 0.11328-5.2422 2.582-5.125 5.5234 0.45312 11.883 1.7969 23.793 4.0039 35.402 0.48047 2.5586 2.7227 4.3359 5.2305 4.3359 0.33203 0 0.66797-0.027344 1.0039-0.09375 2.8867-0.55469 4.793-3.3359 4.2422-6.2266z"/>
  <path d="m115.96 272.64c0.10156 0 0.19141 0.003906 0.28516 0.003906 2.8125 0 5.168-2.207 5.3203-5.0469l0.054688-1.0039c0-0.023438 0-0.039062 0.003906-0.0625 0.0625-1.0625 0.125-2.1289 0.20703-3.1875 0.21094-2.9336-1.9922-5.4883-4.9297-5.6992-2.9297-0.20703-5.4883 1.9922-5.707 4.9336-0.078124 1.0859-0.14453 2.1719-0.21094 3.2656 0 0.023438 0 0.042969-0.003906 0.066406l-0.0625 1.125c-0.15625 2.9414 2.0938 5.4453 5.043 5.6055z"/>
  <path d="m323.05 53.68c19.785-2.2461 40.254-1.8867 59.926 1.0547 0.26172 0.039063 0.53906 0.054687 0.80078 0.054687 2.5938 0 4.8672-1.8984 5.2578-4.543 0.4375-2.9102-1.5664-5.6289-4.4844-6.0586-20.586-3.0742-42-3.4453-62.703-1.0977-2.9219 0.33203-5.0273 2.9688-4.6992 5.8984 0.33594 2.9219 2.9766 5.0234 5.9023 4.6914z"/>
  <path d="m548.93 170.7c0.003906 0.015626 0.023437 0.035157 0.027343 0.050782 0.50781 0.91797 1.0039 1.8359 1.4961 2.7617 0.95703 1.8047 2.8008 2.8281 4.7148 2.8281 0.83984 0 1.6953-0.20313 2.4883-0.62109 2.6055-1.3828 3.5938-4.6094 2.2188-7.2109-0.51953-0.98047-1.0547-1.9531-1.5859-2.9297-0.003906-0.023438-0.015624-0.042969-0.035156-0.066407l-0.50391-0.91797c-1.4297-2.5703-4.6758-3.5-7.2539-2.0664-2.5742 1.4297-3.5 4.6758-2.0664 7.2461z"/>
  <path d="m487.69 99.266 0.80469 0.62109c0.015624 0.011719 0.027343 0.023437 0.039062 0.035156 0.83984 0.65625 1.6797 1.3086 2.5156 1.9766 0.98047 0.78516 2.1562 1.1641 3.3203 1.1641 1.5664 0 3.1133-0.68359 4.1719-2.0039 1.832-2.2969 1.4609-5.6523-0.83984-7.4883-0.85156-0.6875-1.7148-1.3594-2.5742-2.0312-0.015625-0.015624-0.039062-0.035156-0.054688-0.042968l-0.87891-0.67578c-2.3359-1.793-5.6797-1.3555-7.4766 0.98047-1.8008 2.3242-1.3633 5.6719 0.97266 7.4648z"/>
  <path d="m284.03 61.402c0.48828 0 0.99219-0.074219 1.4844-0.21875l1.0039-0.28516c0.003906 0 0.011719-0.003907 0.023437-0.003907 1.0234-0.29297 2.0508-0.57812 3.0781-0.85547 2.8398-0.76562 4.5234-3.6914 3.7578-6.5352s-3.6914-4.5312-6.5352-3.7617c-1.0625 0.29297-2.1211 0.58203-3.1875 0.87891-0.011719 0.003906-0.023438 0.011718-0.039063 0.011718l-1.0703 0.30859c-2.8281 0.81641-4.457 3.7734-3.6406 6.6016 0.6875 2.3438 2.8125 3.8594 5.125 3.8594z"/>
  <path d="m575.84 258.63 0.09375 1.0703v0.003906c0.10156 1.0547 0.17969 2.1094 0.26172 3.1758 0.20703 2.8008 2.543 4.9336 5.3086 4.9336 0.12891 0 0.26953-0.003906 0.39844-0.015625 2.9336-0.21875 5.1406-2.7773 4.9297-5.7188-0.089844-1.1094-0.17969-2.2188-0.28125-3.3203v-0.011718-0.011719l-0.10547-1.0938c-0.26953-2.9297-2.8711-5.0859-5.7891-4.8164-2.9297 0.28516-5.0859 2.8711-4.8164 5.8047z"/>
  <path d="m143.88 379.16c-1.2812-2.6602-4.4727-3.7578-7.1172-2.4766-2.6562 1.2812-3.7578 4.4688-2.4766 7.1172 5.1562 10.652 11.176 21.016 17.875 30.805 1.0352 1.5117 2.7031 2.3203 4.4062 2.3203 1.0352 0 2.0898-0.30078 3.0078-0.93359 2.4297-1.6562 3.0508-4.9766 1.3906-7.4102-6.4141-9.3516-12.156-19.246-17.086-29.422z"/>
  <path d="m403.86 58.855 0.98047 0.24609c0.023437 0.003907 0.035156 0.011719 0.042968 0.011719 1.0352 0.25781 2.0664 0.52734 3.0898 0.80078 0.46484 0.125 0.92969 0.18359 1.3828 0.18359 2.3594 0 4.5078-1.5742 5.1523-3.9531 0.75781-2.8438-0.92969-5.7695-3.7812-6.5312-1.0547-0.28125-2.1211-0.55859-3.1875-0.82422-0.015624-0.003906-0.027343-0.011718-0.039062-0.011718l-1.0938-0.27344c-2.8711-0.69922-5.7461 1.0469-6.4531 3.9023-0.69922 2.8672 1.0508 5.75 3.9062 6.4492z"/>
  <path d="m440.12 71.164c10.371 4.5312 20.496 9.8945 30.094 15.934 0.88672 0.55469 1.8633 0.81641 2.832 0.81641 1.7734 0 3.5039-0.87891 4.5195-2.4922 1.5664-2.4922 0.81641-5.7773-1.6758-7.3516-10.039-6.3242-20.648-11.934-31.5-16.676-2.7031-1.1797-5.8477 0.050781-7.0234 2.75-1.1719 2.6953 0.0625 5.8398 2.7539 7.0195z"/>
  <path d="m232.1 83.625c0.90625 0 1.832-0.23438 2.6758-0.72266 9.793-5.6953 20.094-10.68 30.605-14.836 2.7383-1.0859 4.082-4.1836 3-6.9141-1.082-2.7383-4.1758-4.082-6.9141-3-11.008 4.3438-21.789 9.5703-32.043 15.527-2.5469 1.4766-3.4141 4.7422-1.9336 7.2852 0.98438 1.7148 2.7656 2.6602 4.6094 2.6602z"/>
  <path d="m518.97 431.71-0.70703 0.78906c-0.003907 0.011719-0.003907 0.015625-0.011719 0.023438-0.71094 0.78516-1.4219 1.5625-2.1406 2.3398-2.0039 2.1602-1.8828 5.5273 0.27344 7.5391 1.0234 0.95312 2.3242 1.4219 3.625 1.4219 1.4336 0 2.8633-0.57812 3.9102-1.707 0.76172-0.81641 1.5195-1.6406 2.2578-2.4688 0.003907-0.003906 0.015625-0.011719 0.023438-0.027344l0.72266-0.80078c1.9609-2.1992 1.7656-5.5703-0.42578-7.5312-2.1953-1.9648-5.5625-1.7734-7.5273 0.42188z"/>
  <path d="m537.25 151.65c1.0312 1.5117 2.6992 2.3242 4.4023 2.3242 1.043 0 2.082-0.30078 3.0078-0.93359 2.4297-1.6562 3.0469-4.9766 1.3906-7.4102-6.6758-9.7773-14.156-19.141-22.23-27.832-2.0039-2.1602-5.375-2.2773-7.5391-0.28125-2.1562 2.0039-2.2773 5.375-0.27344 7.5391 7.7148 8.3008 14.855 17.25 21.242 26.594z"/>
  <path d="m557.74 384.15c-2.6055-1.3789-5.8281-0.38672-7.207 2.2188-5.293 10.008-11.387 19.707-18.121 28.824-1.7539 2.3672-1.25 5.7109 1.1211 7.4531 0.95703 0.70703 2.0625 1.0469 3.1602 1.0469 1.6367 0 3.2461-0.75 4.2969-2.168 7.0508-9.543 13.434-19.699 18.973-30.172 1.3711-2.5977 0.37891-5.832-2.2227-7.2031z"/>
  <path d="m491.17 458.04c-8.8477 7.0781-18.301 13.539-28.09 19.219-2.5469 1.4727-3.4102 4.7383-1.9414 7.2852 0.99219 1.707 2.7773 2.6562 4.6133 2.6562 0.91406 0 1.8242-0.23047 2.6758-0.71875 10.242-5.9375 20.133-12.707 29.398-20.109 2.2969-1.8359 2.6758-5.1953 0.82812-7.4922-1.8281-2.3008-5.1914-2.668-7.4844-0.83984z"/>
  <path d="m572.88 237.56c0.48047 2.5586 2.7148 4.3438 5.2344 4.3438 0.32422 0 0.65625-0.035156 0.99219-0.09375 2.8945-0.54688 4.793-3.332 4.25-6.2266-2.1992-11.66-5.293-23.238-9.2188-34.422-0.96875-2.7773-4.0156-4.2461-6.7891-3.2695-2.7812 0.96875-4.2461 4.0156-3.2695 6.793 3.7383 10.684 6.7031 21.742 8.8008 32.875z"/>
  <path d="m581.92 292.01c-2.9727-0.24219-5.4922 1.9805-5.7188 4.9219-0.82422 11.316-2.5156 22.641-5.0117 33.66-0.65625 2.8711 1.1484 5.7305 4.0195 6.3789 0.39062 0.09375 0.79688 0.13281 1.1875 0.13281 2.4375 0 4.6328-1.6797 5.1914-4.1562 2.6133-11.535 4.3867-23.387 5.2539-35.234 0.21875-2.9375-1.9805-5.4961-4.9219-5.7031z"/>
  <path d="m572.24 347.7c-2.793-0.90625-5.8086 0.61719-6.7188 3.4102l-0.33594 1.0078v0.003906c-0.34766 1.0117-0.6875 2.0234-1.043 3.0312-0.96875 2.7812 0.5 5.8242 3.2773 6.7969 0.58203 0.20312 1.1758 0.29688 1.7578 0.29688 2.1992 0 4.2617-1.3711 5.0273-3.5742 0.36328-1.0547 0.72266-2.1055 1.0742-3.1602 0-0.003907 0-0.011719 0.003906-0.011719v-0.015625c0-0.003906 0.003906-0.003906 0.003906-0.011719l0.35156-1.0469c0.92578-2.7969-0.59766-5.8086-3.3984-6.7266z"/>
  <path d="m408.21 500.06c-10.922 2.9219-22.172 5.0508-33.441 6.3164-2.9219 0.33594-5.0273 2.9688-4.6992 5.8984 0.30859 2.7266 2.6133 4.7305 5.2852 4.7305 0.19531 0 0.39844-0.003906 0.59766-0.027343 11.801-1.3281 23.582-3.5547 35.016-6.625 2.8398-0.76562 4.5234-3.6836 3.7617-6.5312-0.75781-2.8438-3.668-4.5273-6.5195-3.7617z"/>
  <path d="m228.04 473.07c-9.5859-6.0156-18.805-12.82-27.406-20.203-2.2344-1.9258-5.6016-1.668-7.5156 0.57031-1.9219 2.2305-1.6641 5.5938 0.57031 7.5156 9 7.7344 18.648 14.844 28.684 21.145 0.88672 0.55859 1.8633 0.81641 2.8281 0.81641 1.7695 0 3.5039-0.87891 4.5195-2.4961 1.5625-2.4883 0.8125-5.7812-1.6797-7.3477z"/>
  <path d="m444.2 487.04-0.96875 0.44141c-0.96875 0.44141-1.9414 0.875-2.9102 1.3008-2.6953 1.1797-3.9258 4.3242-2.7383 7.0234 0.86719 2 2.832 3.1914 4.8828 3.1914 0.71094 0 1.4375-0.14453 2.1328-0.45312 1.0195-0.44141 2.0312-0.89453 3.0391-1.3477 0.011719-0.003907 0.023437-0.011719 0.027343-0.011719l0.98047-0.45312c2.6758-1.2305 3.8516-4.3867 2.6211-7.0664-1.2266-2.6758-4.4023-3.8398-7.0664-2.625z"/>
  <path d="m262.09 490.64-0.91406-0.375c-0.023437-0.011719-0.050781-0.023438-0.078125-0.035157-0.98438-0.41016-1.9648-0.83594-2.9453-1.2617-2.6992-1.1797-5.8398 0.0625-7.0117 2.7539-1.1758 2.6953 0.054687 5.8398 2.7539 7.0156 0.99609 0.42969 1.9883 0.85547 2.9922 1.2812 0.035157 0.011719 0.066407 0.023437 0.10156 0.042969l1.0234 0.42188c0.66797 0.28125 1.3594 0.41016 2.0391 0.41016 2.0938 0 4.0781-1.2422 4.9297-3.293 1.125-2.707-0.16797-5.832-2.8906-6.9609z"/>
  <path d="m180.14 111.68c-8.3711 8.3984-16.18 17.5-23.211 27.035-1.7461 2.3672-1.2383 5.707 1.1328 7.4531 0.95312 0.69922 2.0625 1.043 3.1602 1.043 1.6367 0 3.2539-0.75781 4.2969-2.1719 6.7148-9.1172 14.18-17.809 22.176-25.832 2.0781-2.0898 2.0703-5.4609-0.011718-7.5391-2.0898-2.0781-5.4609-2.0703-7.543 0.011719z"/>
  <path d="m184.46 437.54c-0.015625-0.015625-0.035156-0.039062-0.050782-0.054687-0.73828-0.77344-1.4688-1.5469-2.1953-2.3203-2.0039-2.1562-5.3828-2.2734-7.5312-0.27344-2.1562 2.0039-2.2734 5.3828-0.26953 7.5391 0.73828 0.79688 1.4844 1.5781 2.2305 2.3633 0.015624 0.023438 0.039062 0.042969 0.0625 0.066407l0.77344 0.80469c1.0469 1.0859 2.4414 1.6289 3.8359 1.6289 1.332 0 2.6641-0.5 3.7031-1.5 2.1172-2.043 2.1797-5.4258 0.12891-7.5391z"/>
  <path d="m353.52 507.78-1.0586 0.015625c-1.0625 0.015625-2.1328 0.023437-3.2031 0.023437-2.9453 0.003907-5.3242 2.3984-5.3203 5.3438 0 2.9336 2.3906 5.3203 5.332 5.3203h0.011718c1.1133-0.003906 2.2227-0.011719 3.3359-0.027344h0.027344l1.0859-0.015625c2.9414-0.066406 5.2812-2.4922 5.2305-5.4414-0.066406-2.9453-2.4844-5.332-5.4414-5.2188z"/>
  <path d="m315.31 505.34c-11.211-1.6641-22.379-4.1875-33.191-7.5039-2.8125-0.85547-5.8008 0.71875-6.6641 3.5352-0.86328 2.8125 0.72266 5.7891 3.5352 6.6523 11.324 3.4766 23.016 6.125 34.754 7.8555 0.26953 0.039063 0.53125 0.0625 0.78906 0.0625 2.5977 0 4.8711-1.8984 5.2695-4.5469 0.43359-2.9102-1.5742-5.625-4.4922-6.0547z"/>
 </g>
</svg>
